<svg width="25" height="25" viewBox="0 0 25 25" fill="none" xmlns="http://www.w3.org/2000/svg">
<path d="M8.62147 10.6377L12.1477 7.1727L15.6143 10.7004L17.6661 8.68428L12.1832 3.10485L6.60549 8.58587L8.62155 10.6376L8.62147 10.6377ZM3.10487 12.0258L5.15666 10.0093L7.17271 12.0609L5.12093 14.0771L3.10487 12.0258ZM8.59634 13.5103L12.0614 17.0363L15.5892 13.5699L17.6064 15.6205L17.6054 15.6216L12.0258 21.1042L6.54477 15.5264L6.54192 15.5235L8.59656 13.5101L8.59634 13.5103ZM17.0363 12.1485L19.0881 10.1323L21.1042 12.184L19.0525 14.2002L17.0363 12.1485Z" fill="#F1F1F1"/>
<path d="M14.1667 12.1202L14.1676 12.1202L12.1219 10.0383L10.5831 11.5499L10.4063 11.7237L10.0417 12.082L10.0388 12.0848L10.0417 12.0878L12.0857 14.1682L14.1677 12.1224L14.1687 12.1212L14.1669 12.1202" fill="#F1F1F1"/>
</svg>
