<svg width="134" height="23" viewBox="0 0 134 23" fill="none" xmlns="http://www.w3.org/2000/svg">
  <path d="M0.513516 21.5156V0.0676241H0.541516L11.9935 16.3076L10.2575 15.9156L21.6815 0.0676241H21.7375V21.5156H17.6775V9.22362L17.9295 11.3236L10.9575 21.2356H10.9015L3.73352 11.3236L4.43352 9.39162V21.5156H0.513516ZM32.4403 21.8516C30.947 21.8516 29.6776 21.5716 28.6323 21.0116C27.6056 20.4516 26.8216 19.677 26.2803 18.6876C25.739 17.6983 25.4683 16.5596 25.4683 15.2716C25.4683 14.0396 25.7856 12.929 26.4203 11.9396C27.055 10.9503 27.9043 10.1663 28.9683 9.58762C30.0323 8.99029 31.2176 8.69162 32.5243 8.69162C34.279 8.69162 35.7163 9.20496 36.8363 10.2316C37.975 11.2396 38.7123 12.705 39.0483 14.6276L29.5283 17.6516L28.6603 15.5236L35.5483 13.1996L34.7363 13.5636C34.587 13.0783 34.3163 12.6583 33.9243 12.3036C33.551 11.9303 32.9816 11.7436 32.2163 11.7436C31.6376 11.7436 31.1243 11.8836 30.6763 12.1636C30.247 12.425 29.911 12.8076 29.6683 13.3116C29.4443 13.797 29.3323 14.3756 29.3323 15.0476C29.3323 15.813 29.4723 16.457 29.7523 16.9796C30.0323 17.4836 30.415 17.8663 30.9003 18.1276C31.3856 18.389 31.927 18.5196 32.5243 18.5196C32.9536 18.5196 33.3643 18.445 33.7563 18.2956C34.167 18.1463 34.5683 17.9503 34.9603 17.7076L36.6963 20.6196C36.043 20.993 35.3336 21.2916 34.5683 21.5156C33.8216 21.7396 33.1123 21.8516 32.4403 21.8516ZM43.0449 3.90362H46.9649V9.22362H49.9329V12.2756H46.9649V21.5156H43.0449V12.2756H41.1409V9.22362H43.0449V3.90362ZM58.0684 21.8516C56.9297 21.8516 55.8937 21.6276 54.9604 21.1796C54.0457 20.713 53.3177 20.0036 52.7764 19.0516C52.2351 18.0996 51.9644 16.8863 51.9644 15.4116C51.9644 14.0303 52.2444 12.8356 52.8044 11.8276C53.3644 10.8196 54.1017 10.045 55.0164 9.50362C55.9311 8.94362 56.9017 8.66362 57.9284 8.66362C59.1417 8.66362 60.0564 8.86896 60.6724 9.27962C61.3071 9.67162 61.8297 10.1103 62.2404 10.5956L62.0724 11.0716L62.4364 9.27962H66.0764V21.5156H62.1564V18.8556L62.4644 19.6956C62.4271 19.6956 62.3151 19.8076 62.1284 20.0316C61.9417 20.237 61.6617 20.489 61.2884 20.7876C60.9337 21.0676 60.4857 21.3103 59.9444 21.5156C59.4217 21.7396 58.7964 21.8516 58.0684 21.8516ZM59.1884 18.6596C59.6551 18.6596 60.0751 18.5943 60.4484 18.4636C60.8217 18.3143 61.1484 18.109 61.4284 17.8476C61.7084 17.5676 61.9511 17.2223 62.1564 16.8116V13.8156C62.0071 13.405 61.7831 13.0596 61.4844 12.7796C61.1857 12.481 60.8311 12.257 60.4204 12.1076C60.0097 11.9396 59.5524 11.8556 59.0484 11.8556C58.4884 11.8556 57.9657 12.005 57.4804 12.3036C57.0137 12.5836 56.6404 12.9756 56.3604 13.4796C56.0804 13.9836 55.9404 14.5623 55.9404 15.2156C55.9404 15.869 56.0897 16.457 56.3884 16.9796C56.6871 17.5023 57.0791 17.913 57.5644 18.2116C58.0684 18.5103 58.6097 18.6596 59.1884 18.6596ZM98.3171 22.3556L82.6931 8.24362L83.8971 8.91562L83.9811 21.5156H79.8651V0.0956237H80.0331L95.3211 14.1516L94.4251 13.7596L94.3411 0.907623H98.4291V22.3556H98.3171ZM103.736 0.907623H116.616V4.82762H107.796V9.50362H115.44V13.4236H107.796V21.5156H103.736V0.907623ZM119.125 0.907623H133.013V4.82762H128.001V21.5156H123.941V4.82762H119.125V0.907623Z" fill="#FFFFFF"/>
  </svg>
  